<?xml version="1.0" encoding="utf-8"?>
<!-- Generator: Adobe Illustrator 18.1.0, SVG Export Plug-In . SVG Version: 6.00 Build 0)  -->
<!DOCTYPE svg PUBLIC "-//W3C//DTD SVG 1.1//EN" "http://www.w3.org/Graphics/SVG/1.1/DTD/svg11.dtd">
<svg version="1.1" id="Layer_1" xmlns="http://www.w3.org/2000/svg" xmlns:xlink="http://www.w3.org/1999/xlink" x="0px" y="0px"
	 viewBox="0 1428.7 1237 978.4" enable-background="new 0 1428.7 1237 978.4" xml:space="preserve">
<g>
	<defs>
		<polygon id="SVGID_1_" points="1270.9,2420.4 -62.4,2418.5 -63.2,1729.7 1271.7,1612.9 		"/>
	</defs>
	<clipPath id="SVGID_2_">
		<use xlink:href="#SVGID_1_"  overflow="visible"/>
	</clipPath>
	<g clip-path="url(#SVGID_2_)">
		
			<image overflow="visible" width="4288" height="2848" xlink:href="background2.jpeg"  transform="matrix(0.2912 0 0 0.2912 -5.9034 1587.6757)">
		</image>
	</g>
</g>
<g>
	<path fill="#FFFFFF" d="M1128,1617.8c0.2-3.4-1.7-6.4-4.1-9.4c-6.5-7.9-11.4-16.8-13.1-27.3c-0.6-3.6-2.5-6.4-5.5-8.6
		c-6.1-4.7-13.4-7-19.6-11.5c-2-1.4-2.3,0.5-2.6,1.6c-2.6,7.5-7.6,13.4-11.2,20.1c-3.7,6.9-9.4,10.4-16.8,12.3
		c-8.6,2-16.8,4.2-25.1,7.5c-2.6,1.1-5,2.5-6.9,4.7c-1.7,2.2-3.4,3.9-6.4,4.1c-2.3,0.2-3.1,2.2-3.9,3.9c-2.3,4.7-5.6,8.6-9,12.3
		c-0.9,1.1-2.2,2.3-3.7,1.7c-1.7-0.6-1.7-2.5-1.6-3.9c0.5-8.3,2.5-16.2,4.4-24.2c0.6-2.8,3.4-3.7,5.9-2.8c7.2,2.3,12.8-0.6,18.4-4.5
		c3.4-2.3,6.9-4.5,10.3-6.9c4.1-2.6,8.3-4.7,13.2-5c3.9-0.2,6.1-2.3,7-6.4c2.8-12,7.6-23.5,6.5-36.2c-0.2-1.4,0.5-3,1.2-4.2
		c3.6-6.1,1.2-10.6-3.1-15c-3.4-3.3-7.2-6.2-10.6-9.7c-6.7-6.5-6.7-12.3,0-18.5c6.4-6.1,12.2-12.9,20.9-16.1
		c4.4-1.6,5.3-5.1,3.3-9.4c-1.1-2.3-2-4.5-3.1-6.7c-3.1-6.4-1.6-10.9,4.8-14.2c6.1-3.1,14-1.4,16.4,4.2c1.7,3.9,3.4,8.3,3.1,12.8
		c-0.2,4.1,0.2,7.6-5.3,8.7c-3,0.5-1.7,2.8-0.3,3.9c5.9,4.8,6.4,11.5,6.5,18.4c0.2,9.2,2,11.2,10.9,12.5c3.7,0.6,7.5,0.2,11.2,0
		c2.8-0.2,6.2-0.9,7,3.4c0.6,3.1-2.2,7.5-5.3,8.6c-1.6,0.5-3.3,0.6-4.8-0.2c-5.6-3.1-11.5-2.3-17.3-2c-3.6,0.2-5.8,2.2-5.8,6.1
		c-0.2,4.1-0.5,8.3-0.6,12.3c-0.2,3.1,1.6,5.3,3.6,7.2c3.1,2.8,6.4,5.8,9.7,8.6c14.2,12.6,20.7,29.3,25.3,47.1
		c0.5,1.9,0.9,3.9,1.6,5.8c3.4,10.1,7.2,12.9,17.8,13.9c2.3,0.2,5.8-0.9,6.4,2.2c0.5,3.3-3,4.4-5.6,5.5c-2.8,1.2-5.6,2-8.4,2.8
		C1133.6,1630.6,1129.8,1628.4,1128,1617.8z M1070.1,1517.9c0.6-6.5-0.3-12.2-3-17.6c-1.2-2.3-2.5-1.6-3.9-0.5
		c-1.2,1.1-5,0.2-3.1,3.4C1062.8,1508.6,1065.5,1513.6,1070.1,1517.9z"/>
</g>
</svg>
