<?xml version="1.0" encoding="utf-8"?>
<!-- Generator: Adobe Illustrator 18.1.0, SVG Export Plug-In . SVG Version: 6.00 Build 0)  -->
<!DOCTYPE svg PUBLIC "-//W3C//DTD SVG 1.1//EN" "http://www.w3.org/Graphics/SVG/1.1/DTD/svg11.dtd">
<svg version="1.1" id="Layer_1" xmlns="http://www.w3.org/2000/svg" xmlns:xlink="http://www.w3.org/1999/xlink" x="0px" y="0px"
	 viewBox="0 0 91.8 89.8" enable-background="new 0 0 91.8 89.8" xml:space="preserve">
<symbol  id="Gerbera" viewBox="-23.3 -23.2 46.5 46.3">
	<polygon fill="none" points="-23,-23.1 23.1,-23.1 23.1,23.1 -23,23.1 	"/>
	<g>
		<path fill="#EC5F5B" d="M-15.7,6.5c-4.5,1.1-5.5,0-5.5,0c0.6-1,1.6-1.8,2.7-2.4c2.4-0.1,5.2-0.5,7.1-0.7
			C-12.9,4.3-14.4,5.5-15.7,6.5z"/>
		<path fill="#EC5F5B" d="M23.1,1.2c0,0-2.6,0.5-5.3,0.6c-1-0.8-4.7-1.5-7.6-1.9c2.5,0,5.5-1.1,7.3-1.9C19.6-1.4,24.2,0.1,23.1,1.2z
			"/>
		<path fill="#F08571" d="M7-0.6c0-0.1,0-0.2,0-0.3L7.2-1c0.3,0.2,0.7,0.4,1,0.6c-0.3,0-0.6-0.1-0.9-0.1L7-0.6z"/>
		<path fill="#EC5F5B" d="M17.8,2.1C19,2.3,21.2,2.9,19.3,4c0,0-2.7,1.5-5.3,1.3C12.2,4,10.5,3,10.3,2.9C13.4,3,17,2.2,17.8,2.1z"/>
		<path fill="#EC5F5B" d="M8,6.4L7.2,5.6c3.1,2,7.8,3.7,10,4.4c0.8,1,2.6,3.2,0.1,2.7c0,0-2-0.5-3.4-1c-0.3-0.4-0.5-0.6-0.5-0.6
			L8,6.4z"/>
		<path fill="#ED7063" d="M-0.5,19.1c1.3-3.3,1.4-7,1.2-9.6l0.2,0.9c0.6,1.5,1,2.8,1.5,3.9c-0.5,3.3-2.4,13.8-3.8,6.1
			C-0.9,20.1-0.5,19.1-0.5,19.1z"/>
		<path fill="#EC5F5B" d="M-3.3,14.2c0,1,0.1,1.8,0.2,2.6C-3.5,17.7-4,18.4-5,18.5c0.3-0.6,0.6-1.4,0.8-2.2L-3.3,14.2z"/>
		<path fill="#ED7063" d="M-7.1,17.9c0.4-0.3,2-4.4,3.3-7.8l1.1-2.2c-0.4,2-0.6,3.8-0.6,5.5c-0.2,0.9-0.5,1.9-0.9,2.9
			c-0.3,0.8-0.5,1.5-0.8,2.2c-0.9,2-1.8,3-2.5,0.6l-0.1-1.3l0.1-0.2C-7.3,17.8-7.1,17.9-7.1,17.9z"/>
		<path fill="#EC5F5B" d="M-9,5.4c-0.7,0.7-1.3,1.5-1.8,2.2c-3.1,3-7.8,7.3-6.5,4.4c0,0,0.4-1.3,1.2-2.4c1.9-1,4.3-2.5,6.3-3.7
			L-9,5.4z"/>
		<path fill="#ED7063" d="M-16.9,1.5c-0.9,0.4-1.5,0.6-1.5,0.6c-3.9,1.9,4.7,0.7,9.5-0.1c-0.8,0.3-1.7,0.8-2.6,1.4
			c-1.9,0.2-4.7,0.6-7.1,0.7c-4,0.2-6.9-0.2-2.6-2.4C-19.9,1.7-18.3,1.6-16.9,1.5z"/>
		<path fill="#F08571" d="M-10.3-0.7c0.3,0,0.6,0,0.8,0c-0.4,0-0.8,0.1-1.2,0.2L-10.3-0.7z"/>
		<path fill="#EC5F5B" d="M-10.3-0.7l-0.3,0.2c-2.2,0.4-4.7,1.3-6.3,2c-1.4,0.1-3,0.2-4.3,0.2c-2-0.1-2.9-0.5-0.2-1.8
			c0,0,2.3-0.6,4.9-1C-14.4-0.9-12-0.7-10.3-0.7z"/>
		<path fill="#EC5F5B" d="M-11.1-5.5c0,0,0,0.1,0,0.1c-1.7-0.4-3.6-0.6-5.3-0.7c-4.3-1.6-9.3-3.7-4.7-3.9c0,0,0.3,0,0.7,0.1
			c1.3,0.7,3,1.1,4.1,1.4C-14.6-7.4-12.7-6.4-11.1-5.5z"/>
		<path fill="#ED7063" d="M-16.3-8.5c-1.1-0.3-2.8-0.7-4.1-1.4c-1-0.5-1.7-1.1-1.8-1.8c0,0,1.3-0.4,2.6-0.1
			C-19.6-11-18.2-9.8-16.3-8.5z"/>
		<path fill="#EC5F5B" d="M-15.2-14.4c-3.2-0.3-1.3,1.7,1.7,4c0,0-0.1,0-0.1,0c0,0-8.7-7-3.3-5.5c0,0,1.2,0.5,2.4,1.2
			c0.5,0.5,0.9,0.9,1.4,1.3C-14.3-13.9-15.2-14.4-15.2-14.4z"/>
		<path fill="#ED7063" d="M-6.6-8.9c-1.8-1.7-4.6-3.4-6.5-4.4c-0.5-0.4-1-0.9-1.4-1.3c-2.1-2.1-3.5-4.1,0.7-2.6c0,0,2.1,1.6,4,3.5
			C-8.7-12-7.6-10.3-6.6-8.9C-6.6-8.9-6.6-8.9-6.6-8.9z"/>
		<path fill="#EC5F5B" d="M-0.9-9c-0.3,0-0.6,0.1-0.9,0.2c-0.7-3.3-1.8-5.8-2.8-7.6c-1-3.4-1.4-6.5,0.4-5.8c0,0,0.3,0.7,0.8,1.8
			C-3.5-17.2-1.8-11.6-0.9-9L-0.9-9z"/>
		<path fill="#EC5F5B" d="M2.5-8.5c2-6.1,2.2-9.4,2-11.1c0.9-1.6,3.8-6,3.7-1.7c0,0-0.3,3.3-1,6.1C5.1-12.7,3.2-9.5,2.5-8.5
			C2.6-8.5,2.6-8.5,2.5-8.5z"/>
		<path fill="#ED7063" d="M9.2-11.3c2.4-3.4,3.6-6.8,3.6-6.8c0,0,0,0-0.1-0.1c1.8-1.4,5.2-3.6,2.6,1.9c-1.6,1-3.8,3-5.8,4.8
			L9.2-11.3z"/>
		<path fill="#EC5F5B" d="M18-13.3c0,0-2.4,2.7-4.6,3.9c1.9-2.1,3.2-4.3,3.9-5.4C18.4-15.3,19.7-15.5,18-13.3z"/>
		<path fill="#F08571" d="M8.2-0.4C7.8-0.5,7.5-0.7,7.2-1c0,0-0.1,0-0.1-0.1c0-0.4,0-0.9,0-1.3C7-2.5,7-2.8,7-3l9.2-1.7
			c0.6-0.2,1.2-0.4,1.7-0.7c1,0,2.1,0,3.3,0.1c0,0,1.5,0.3-2,2.5c0,0-0.6,0.3-1.6,0.7c-1.8,0.8-4.8,1.9-7.3,1.9
			C9.4-0.2,8.8-0.3,8.2-0.4z"/>
		<path fill="#F08571" d="M10.3,2.9C10.2,2.8,10.2,2.8,10.3,2.9L6.4,1.6C6.7,1,6.9,0.2,7-0.5c0.1,0,0.2,0,0.3,0
			c0.3,0,0.6,0.1,0.9,0.1c0.6,0.1,1.2,0.2,2,0.3c2.9,0.4,6.6,1.1,7.6,1.9C17.8,1.9,17.9,2,18,2c0,0-0.1,0-0.2,0
			C17,2.2,13.4,3,10.3,2.9z"/>
		<path fill="#F29581" d="M6.6,5.2L5.1,3.9c0,0-0.1-0.1-0.1-0.1c0.6-0.6,1.1-1.3,1.4-2.1l3.8,1.2c0,0,0,0,0,0C10.5,3,12.2,4,14,5.3
			c3.1,2.1,6.6,4.8,4.3,5.1c0,0-0.4-0.1-1.2-0.4c-2.2-0.7-6.9-2.4-10-4.4C7,5.5,6.8,5.4,6.6,5.2z"/>
		<path fill="#F08571" d="M5,3.8l0.1,0.1l1.5,1.3L8,6.4l5.4,4.7c0,0,0.2,0.3,0.5,0.6c1.1,1.5,3.4,4.9,1.8,4.4c0,0-4.8-0.8-7.9-5.6
			L4.2,4.5C4.5,4.3,4.7,4,5,3.8z"/>
		<path fill="#ED7063" d="M2.9,5.2C3.4,5,3.8,4.8,4.2,4.5l3.6,6.1c0,0,4.1,11.5,0.7,8c0,0-1.8-1.2-2.6-2.9C6,14,4,8.1,2.9,5.2z"/>
		<path fill="#F08571" d="M0.7,9.5C0.6,7.4,0.3,6,0.3,6L0.1,5.9c0.2,0,0.3,0,0.5,0c0.7-0.1,1.4-0.3,2-0.5C2.7,5.8,2.9,6.3,3,6.9
			c0.7,3,1.6,6.7,2,8.2c0.4,2.1,0.7,3.7,0.3,3.8c0,0-0.2,2.3-3-4.5C2,13.2,1.5,12,0.9,10.4L0.7,9.5z"/>
		<path fill="#F29581" d="M-3.3,13.4c0-1.6,0.2-3.5,0.6-5.5c0.2-0.7,0.3-1.5,0.6-2.3c0.7,0.2,1.4,0.3,2.2,0.3L0.3,6
			c0,0,0.3,1.4,0.4,3.5c0.2,2.6,0.1,6.3-1.2,9.6c0,0-0.4,1-1,1.2c-0.4,0.2-0.8,0.1-1.2-0.9c0,0-0.3-1-0.4-2.7
			c-0.1-0.7-0.1-1.6-0.2-2.6C-3.3,13.9-3.3,13.6-3.3,13.4z"/>
		<path fill="#F08571" d="M-3.5,5.1c0.4,0.2,0.9,0.4,1.4,0.6C-2.3,6.2-3,8.1-3.8,10.1c-1.3,3.4-2.9,7.5-3.3,7.8c0,0-0.2-0.1-0.4-0.3
			C-8,17-8.6,15.5-7,11.4c0,0,0.3-0.8,0.7-1.8c1.1-1.8,2-3.4,2.5-4.3C-3.7,5.2-3.6,5.1-3.5,5.1z"/>
		<path fill="#F08571" d="M-5.1,3.9C-5.1,3.9-5.1,3.9-5.1,3.9c0.5,0.4,1,0.8,1.5,1.1c0,0.1-0.1,0.2-0.2,0.3
			c-0.5,0.9-1.4,2.5-2.5,4.3c-2.3,3.9-5.5,8.5-6.9,7.8c0,0-1-1.5,1.2-3.8c0,0,0,0,0-0.1C-9.7,11.5-6.2,5.7-5.1,3.9z"/>
		<path fill="#F29581" d="M-8.6,5C-7,4-5.9,3.2-5.9,3.2c0-0.1,0-0.1,0-0.2c0.2,0.3,0.5,0.6,0.7,0.8c0,0,0,0,0,0
			c-1,1.7-4.6,7.6-6.8,9.6c-0.5,0.5-0.9,0.7-1.3,0.7c0,0,0.1-3.1,2.4-6.5c0.5-0.7,1.1-1.5,1.8-2.2C-8.9,5.3-8.7,5.2-8.6,5z"/>
		<path fill="#F08571" d="M-8.9,2C-8,1.8-7.2,1.7-6.7,1.6c0.2,0.5,0.5,1,0.9,1.4c0,0.1,0,0.1,0,0.2C-5.9,3.2-7,4-8.6,5
			c-0.4,0.3-0.8,0.5-1.2,0.8c-2,1.3-4.4,2.8-6.3,3.7c-2.6,1.4-4.3,1.8-2.6-0.5c0,0,1.3-1.2,3-2.6c1.3-1,2.8-2.2,4.3-3.1
			C-10.5,2.8-9.7,2.3-8.9,2z"/>
		<path fill="#F08571" d="M-6.7,1.6C-7.2,1.7-8,1.8-8.9,2c-4.8,0.8-13.3,2.1-9.5,0.1c0,0,0.6-0.3,1.5-0.6c1.5-0.6,4-1.6,6.3-2
			c0.4-0.1,0.8-0.1,1.2-0.2c0.7,0,1.2,0,1.5,0c0.2,0,0.4,0.1,0.6,0.1C-7.2,0.2-7,1-6.7,1.6z"/>
		<path fill="#ED7063" d="M-7.4-2.3c0,0.5,0,1,0,1.5c0,0,0,0,0,0c-0.1,0.1-0.1,0.1-0.2,0.1c0,0-0.1,0-0.4,0c-0.3,0-0.9,0-1.5,0
			c-0.3,0-0.5,0-0.8,0c-1.8-0.1-4.1-0.2-6.2-0.5c-2.4-0.4-4.4-1-4.9-2c0,0-3.1-1.9,0.8-1.7c3,1,9.8,1.9,12.5,2.3
			C-7.8-2.5-7.6-2.4-7.4-2.3z"/>
		<path fill="#F08571" d="M-10.7-5.3c1.8,1,3.2,1.6,3.2,1.6c0.1,0,0.2-0.1,0.3-0.1c0,0,0.1,0.1,0.1,0.1c-0.1,0.4-0.2,0.7-0.2,1.1
			c-0.2,0-0.4-0.1-0.6-0.1C-10.8-3-17.6-4-20.5-4.9c-1.6-0.5-2.1-1-0.3-1.4c0,0,2,0,4.5,0.2c1.7,0.1,3.6,0.4,5.3,0.7
			C-10.9-5.4-10.8-5.3-10.7-5.3z"/>
		<path fill="#F08571" d="M-6.4-5.4c-0.3,0.5-0.5,1-0.7,1.5c0,0-0.1,0-0.2,0c-0.1,0-0.2,0.1-0.3,0.1c0,0-1.4-0.7-3.2-1.6
			c-0.1-0.1-0.2-0.1-0.4-0.2c-1.6-0.9-3.6-2-5.2-3c-1.9-1.3-3.4-2.5-3.4-3.3c0-0.4,0.3-0.6,1-0.8c0,0,2.9,1.3,5.9,2.8
			c2.1,1.6,4.5,3.1,6,4.1C-6.5-5.5-6.5-5.5-6.4-5.4z"/>
		<path fill="#F29581" d="M-15.2-14.4c0,0,0.9,0.4,2.1,1.1c1.9,1,4.6,2.7,6.5,4.4c0,0,0.1,0,0.1,0.1C-6-8-5.6-7.3-5.3-6.9
			C-5.7-6.5-6.1-6-6.4-5.5c-0.1,0-0.1-0.1-0.2-0.1c-1.5-0.9-3.9-2.5-6-4.1c-0.3-0.2-0.6-0.4-0.9-0.6C-16.5-12.6-18.4-14.7-15.2-14.4
			z"/>
		<path fill="#F08571" d="M-4-7.9c-0.5,0.3-0.9,0.6-1.3,1C-5.6-7.3-6-8-6.6-8.8c0,0-0.1-0.1-0.1-0.1c-0.9-1.4-2.1-3.1-3.2-4.8
			c-2.7-4.3-4.9-8.4-1.1-5.1c0,0,2.3,2.4,4.3,5.2c1,2.3,2.1,4.4,2.6,5.4C-4-8.1-4-8-4-7.9z"/>
		<path fill="#F08571" d="M-3.9-8C-3.9-8.1-4-8.1-4-8.2c-0.5-1-1.6-3.1-2.6-5.4c-2-4.4-3.8-9.2-0.8-6.4c0,0,1.3,1.1,2.8,3.6
			c1,1.8,2.1,4.3,2.8,7.6C-2.6-8.7-3.3-8.4-3.9-8z"/>
		<path fill="#ED7063" d="M0.4-9.5c0,0.1-0.1,0.3-0.1,0.4c-0.4,0-0.8,0-1.2,0c-0.8-2.6-2.6-8.2-2.6-11.5c0-1.7,0.5-2.8,1.8-2.5
			c0,0,1.8,4.1,2.4,8.4C0.3-12.5,0.3-10.6,0.4-9.5z"/>
		<path fill="#F08571" d="M2.5-8.5C1.9-8.8,1.1-9,0.4-9c0-0.1,0-0.3,0-0.4c0-1.1,0-3.1,0.3-5.1c0.4-2.7,1.2-5.5,3.2-6.9
			c0,0,0.5,0.4,0.7,1.9C4.7-17.9,4.5-14.6,2.5-8.5z"/>
		<path fill="#F29581" d="M9.2-11.3c-0.2,0.2-0.3,0.5-0.5,0.7C6.9-8.9,5.5-7.4,4.9-6.9C4.3-7.5,3.5-8.1,2.6-8.5
			c0.6-1,2.5-4.2,4.6-6.8c2-2.5,4.3-4.4,5.5-2.9c0,0,0,0,0.1,0.1C12.8-18.1,11.6-14.7,9.2-11.3z"/>
		<path fill="#F08571" d="M6.4-4.7C6-5.5,5.5-6.2,4.9-6.9c0.6-0.6,2-2.1,3.7-3.7c0.3-0.3,0.5-0.5,0.8-0.8c2-1.9,4.2-3.8,5.8-4.8
			c1.6-1,2.7-1.1,2.4,0.5c0,0-0.2,0.3-0.5,0.8c-0.7,1.2-2.1,3.3-3.9,5.4c-1,1.1-2.1,2.2-3.3,3.2C8.5-5.6,7.2-5.1,6.4-4.7L6.4-4.7z"
			/>
		<path fill="#ED7063" d="M7-3C6.8-3.6,6.7-4.2,6.4-4.7c0,0,0,0,0,0C7.2-5.1,8.5-5.6,10-6.2c5.1-2.1,12.5-4.8,12.5-2.5
			c0,0-1.1,1.8-4.7,3.4c-0.5,0.2-1.1,0.4-1.7,0.7L7-3z"/>
		<path fill="#EC5F5B" d="M2.7,5.3c0.1,0,0.2-0.1,0.2-0.1C4,8.1,6,14,5.9,15.6c0,0.4-0.2,0.5-0.6,0.2c0,0-0.1-0.3-0.2-0.7
			c-0.4-1.5-1.3-5.2-2-8.2C2.9,6.4,2.8,5.8,2.7,5.3z"/>
		<path d="M7-0.6C7-0.6,7-0.6,7-0.6C6.9,0.2,6.7,1,6.4,1.6C6.1,2.4,5.6,3.1,5,3.8c0,0,0,0,0,0C4.7,4,4.5,4.3,4.2,4.5
			C3.8,4.8,3.4,5,2.9,5.2c-0.1,0-0.2,0.1-0.2,0.1c0,0,0,0-0.1,0C2,5.6,1.3,5.8,0.6,5.9c-0.2,0-0.4,0-0.5,0c-0.8,0-1.5-0.1-2.2-0.3
			c0,0,0,0,0,0c-0.5-0.1-0.9-0.3-1.4-0.6c0,0-0.1,0-0.1-0.1c-0.5-0.3-1-0.7-1.4-1.1c0,0,0,0,0,0C-5.4,3.6-5.6,3.3-5.9,3
			c-0.3-0.4-0.6-0.9-0.9-1.4C-7,1-7.2,0.2-7.3-0.5c0-0.1,0-0.2,0-0.3c0,0,0,0,0,0c-0.1-0.5-0.1-1,0-1.5c0-0.1,0-0.2,0-0.3
			c0-0.4,0.1-0.7,0.2-1.1c0-0.1,0-0.1,0-0.2c0.2-0.5,0.4-1.1,0.7-1.5c0,0,0-0.1,0.1-0.1c0.3-0.5,0.7-1,1.1-1.5
			c0.4-0.4,0.8-0.7,1.3-1C-4-8-3.9-8-3.9-8c0.6-0.4,1.3-0.7,2.1-0.9C-1.5-8.9-1.2-9-0.9-9h0c0.4,0,0.8,0,1.2,0c0.1,0,0.1,0,0.2,0
			C1.1-9,1.9-8.8,2.5-8.5c0,0,0.1,0,0.1,0c0.9,0.4,1.7,0.9,2.3,1.6C5.5-6.2,6-5.5,6.4-4.7c0,0,0,0,0,0C6.7-4.2,6.8-3.6,7-3
			C7-2.8,7-2.5,7.1-2.3c0,0.4,0,0.9,0,1.3c0,0,0,0.1,0,0.1C7.1-0.8,7.1-0.7,7-0.6z"/>
		<g>
			<polygon fill="#C3922E" points="6.8,-1.3 5.9,-2.5 6.4,-4 5.7,-5.1 4.5,-5.7 3.5,-6.3 3,-7.8 1.7,-8.1 0.6,-7.9 -0.1,-7.5 
				-1.4,-7.9 -2.5,-7.2 -4,-7.4 -4.7,-6.2 -5.6,-5.3 -6.2,-4.2 -6.9,-3.2 -6.8,-2.1 -6.7,-1.3 -6.9,0 -6.3,1.2 -5.6,2.2 -5.2,3.4 
				-4.1,4 -2.8,4.3 -1.8,4.9 -0.9,5.1 -0.1,4.8 1.1,5 2.4,4.8 3.7,4.7 4.4,3.4 5.3,2.6 6.3,1.7 6.6,0.5 6.2,-0.6 			"/>
		</g>
		<path fill="#D4B06E" d="M4.5-1.3C4.5-3.9,2.4-6-0.1-6c-2.6,0-4.7,2.1-4.7,4.7c0,2.6,2.1,4.7,4.7,4.7C2.4,3.3,4.5,1.2,4.5-1.3z"/>
		<path fill="#E2CB9F" d="M3-1.3c0-1.7-1.4-3.1-3.1-3.1c-1.7,0-3.1,1.4-3.1,3.1c0,1.7,1.4,3.1,3.1,3.1C1.6,1.8,3,0.4,3-1.3z"/>
		<polygon fill="#D4B06E" points="4.9,0 4.5,0.8 4.9,1.6 5.8,1.6 6.2,0.8 5.8,0 		"/>
		<polygon fill="#D4B06E" points="3.7,-4.5 3.3,-3.7 3.7,-3 4.6,-3 5.1,-3.7 4.6,-4.5 		"/>
		<polygon fill="#D4B06E" points="0.2,-4.1 -0.3,-3.3 0.2,-2.6 1.1,-2.6 1.5,-3.3 1.1,-4.1 		"/>
		<polygon fill="#D4B06E" points="-0.6,0.8 -1.1,1.6 -0.6,2.4 0.3,2.4 0.7,1.6 0.3,0.8 		"/>
		<polygon fill="#D4B06E" points="-2.5,3.2 -3,3.9 -2.5,4.7 -1.7,4.7 -1.2,3.9 -1.7,3.2 		"/>
		<polygon fill="#D4B06E" points="-5.5,1.2 -5.9,2 -5.5,2.7 -4.6,2.7 -4.2,2 -4.6,1.2 		"/>
		<polygon fill="#D4B06E" points="-5.3,-2.9 -5.8,-2.2 -5.3,-1.4 -4.4,-1.4 -4,-2.2 -4.4,-2.9 		"/>
		<polygon fill="#D4B06E" points="-5.9,-3.4 -6.4,-2.6 -5.9,-1.8 -5.1,-1.8 -4.6,-2.6 -5.1,-3.4 		"/>
		<polygon fill="#D4B06E" points="-4.5,-5.1 -4.9,-4.3 -4.5,-3.6 -3.6,-3.6 -3.2,-4.3 -3.6,-5.1 		"/>
		<polygon fill="#D4B06E" points="-1.3,-3.9 -1.8,-3.1 -1.3,-2.4 -0.4,-2.4 0,-3.1 -0.4,-3.9 		"/>
		<polygon fill="#D4B06E" points="0.5,-0.9 0,-0.2 0.5,0.6 1.3,0.6 1.8,-0.2 1.3,-0.9 		"/>
		<polygon fill="#D4B06E" points="2.4,-3.7 2,-2.9 2.4,-2.2 3.3,-2.2 3.8,-2.9 3.3,-3.7 		"/>
		<polygon fill="#D4B06E" points="2.2,0.6 1.8,1.4 2.2,2.2 3.1,2.2 3.6,1.4 3.1,0.6 		"/>
	</g>
</symbol>
<rect x="5.6" y="8" fill="none" width="79.9" height="69.2"/>
<use xlink:href="#Gerbera"  width="46.5" height="46.3" x="-23.3" y="-23.2" transform="matrix(1.5385 0 0 -1.5385 47.5112 42.5599)" overflow="visible"/>
<rect x="25.5" y="36.7" fill="none" width="66.3" height="30.5"/>
<text transform="matrix(1 0 0 1 25.4851 50.2049)" fill="#FFFFFF" font-family="'MyriadPro-Bold'" font-size="19">Logo</text>
</svg>
