<?xml version="1.0" encoding="utf-8"?>
<!-- Generator: Adobe Illustrator 18.1.0, SVG Export Plug-In . SVG Version: 6.00 Build 0)  -->
<!DOCTYPE svg PUBLIC "-//W3C//DTD SVG 1.1//EN" "http://www.w3.org/Graphics/SVG/1.1/DTD/svg11.dtd">
<svg version="1.1" id="Layer_1" xmlns="http://www.w3.org/2000/svg" xmlns:xlink="http://www.w3.org/1999/xlink" x="0px" y="0px"
	 viewBox="0 0 612 295.9" enable-background="new 0 0 612 295.9" xml:space="preserve">
<rect x="-26.6" y="217.1" transform="matrix(0.9962 -8.715471e-02 8.715471e-02 0.9962 -23.7102 27.662)" fill="#41A156" width="663" height="136.5"/>
<g>
	<path d="M535.1,189.2c0.1-2.2-1.1-4.1-2.6-6c-4.2-5.1-7.3-10.8-8.4-17.5c-0.4-2.3-1.6-4.1-3.5-5.5c-3.9-3-8.6-4.5-12.6-7.4
		c-1.3-0.9-1.5,0.3-1.7,1c-1.7,4.8-4.9,8.6-7.2,12.9c-2.4,4.4-6,6.7-10.8,7.9c-5.5,1.3-10.8,2.7-16.1,4.8c-1.7,0.7-3.2,1.6-4.4,3
		c-1.1,1.4-2.2,2.5-4.1,2.6c-1.5,0.1-2,1.4-2.5,2.5c-1.5,3-3.6,5.5-5.8,7.9c-0.6,0.7-1.4,1.5-2.4,1.1c-1.1-0.4-1.1-1.6-1-2.5
		c0.3-5.3,1.6-10.4,2.8-15.5c0.4-1.8,2.2-2.4,3.8-1.8c4.6,1.5,8.2-0.4,11.8-2.9c2.2-1.5,4.4-2.9,6.6-4.4c2.6-1.7,5.3-3,8.5-3.2
		c2.5-0.1,3.9-1.5,4.5-4.1c1.8-7.7,4.9-15.1,4.2-23.2c-0.1-0.9,0.3-1.9,0.8-2.7c2.3-3.9,0.8-6.8-2-9.6c-2.2-2.1-4.6-4-6.8-6.2
		c-4.3-4.2-4.3-7.9,0-11.9c4.1-3.9,7.8-8.3,13.4-10.3c2.8-1,3.4-3.3,2.1-6c-0.7-1.5-1.3-2.9-2-4.3c-2-4.1-1-7,3.1-9.1
		c3.9-2,9-0.9,10.5,2.7c1.1,2.5,2.2,5.3,2,8.2c-0.1,2.6,0.1,4.9-3.4,5.6c-1.9,0.3-1.1,1.8-0.2,2.5c3.8,3.1,4.1,7.4,4.2,11.8
		c0.1,5.9,1.3,7.2,7,8c2.4,0.4,4.8,0.1,7.2,0c1.8-0.1,4-0.6,4.5,2.2c0.4,2-1.4,4.8-3.4,5.5c-1,0.3-2.1,0.4-3.1-0.1
		c-3.6-2-7.4-1.5-11.1-1.3c-2.3,0.1-3.7,1.4-3.7,3.9c-0.1,2.6-0.3,5.3-0.4,7.9c-0.1,2,1,3.4,2.3,4.6c2,1.8,4.1,3.7,6.2,5.5
		c9.1,8.1,13.3,18.8,16.2,30.2c0.3,1.2,0.6,2.5,1,3.7c2.2,6.5,4.6,8.3,11.4,8.9c1.5,0.1,3.7-0.6,4.1,1.4c0.3,2.1-1.9,2.8-3.6,3.5
		c-1.8,0.8-3.6,1.3-5.4,1.8C538.7,197.4,536.3,196,535.1,189.2z M498,125.1c0.4-4.2-0.2-7.8-1.9-11.3c-0.8-1.5-1.6-1-2.5-0.3
		c-0.8,0.7-3.2,0.1-2,2.2C493.3,119.1,495,122.3,498,125.1z"/>
</g>
</svg>
