<?xml version="1.0" encoding="utf-8"?>
<!-- Generator: Adobe Illustrator 18.1.0, SVG Export Plug-In . SVG Version: 6.00 Build 0)  -->
<!DOCTYPE svg PUBLIC "-//W3C//DTD SVG 1.1//EN" "http://www.w3.org/Graphics/SVG/1.1/DTD/svg11.dtd">
<svg version="1.1" id="Layer_1" xmlns="http://www.w3.org/2000/svg" xmlns:xlink="http://www.w3.org/1999/xlink" x="0px" y="0px"
	 viewBox="0 184.9 612 325.8" enable-background="new 0 184.9 612 325.8" xml:space="preserve">
<rect x="-26.6" y="418.2" transform="matrix(0.9962 8.715518e-02 -8.715518e-02 0.9962 43.5531 -24.7251)" fill="#EB2D00" width="663" height="136.5"/>
<g>
	<path fill="#000100" d="M514.8,438.1c-1.6-0.5-1-1.2-0.1-1.7c0.9-0.5,2-0.7,3-1c2.4,2.7,2.6-0.6,3.7-1.4c1.5-1.1-0.3-1.5-0.6-2.2
		c0.7-1.2,0-2.4-0.4-3.3c-2.6-5.7-4.3-11.8-8.5-16.6c-1.4-1.6-1.4-3.6-1.2-5.5c0.9-6.5,2.5-12.8,4.5-19c0.5-1.4,0.7-2.5-0.1-4.1
		c-1.4-2.7-1.3-6-1.7-9c-1.3-1.1-0.1-2.9-1.2-4c-3.3-4.3-2.3-7.9,1.5-11.3c1.2-1.1,1.8-2.8,2.2-4.4c0.5-2.3-0.7-4.3-2.8-5
		c-1.9-0.6-3.5-3.5-2.8-5.4c0.3-0.8,0.4-1.6,0.4-2.4c0-2.4,0.5-4.7,3-5.7c2.5-1,5.1-0.7,7.3,1c0.7,0.6,1.2,1.8,2.5,1.1
		c0.9,0.3,1.6,1.4,2.8,0.8c1,0.6,1.5,1.5,2,2.4c-0.6,0.8-0.9-0.8-1.6,0c0.6,0.5,0.7,1.4,1.6,1.7c1,2.9-0.5,4.9-2.2,6.9
		c-1.1,1.2-3.2,2.2-2.8,3.8c0.5,2.2,2,4.1,3.9,5.6c2.1,1.7,4.3,3.5,6.4,5.3c2.1,1.8,2,2.8-0.4,4.1c-2,1.1-4.1,2.1-6.1,3.2
		c-0.9,0.1-1.7,0.4-2.3,0.9c-0.7,1-0.1,1.8,0.4,2.6c1.4,1.9,2.3,4.1,3.1,6.4c1.2,3.5,0.7,6.3-2,9.1c-3.1,3.2-3.7,7.7-5.8,11.5
		c-0.6,1.1-1.1,2.3-1.7,3.7c4.5,0.4,7.8,3.2,11.1,5.7c3.8,2.9,8.7,3.2,12.5,6.2c-0.4,0.8-1.4-0.1-1.8,0.6c-0.2,1.1,0.3,2,1,2.7
		c1.9,2.1,1,4.3,0.5,6.5c-0.1,0.5-0.3,1.1-1,1.1c-0.6,0-1-0.4-1.1-1c-1-5.7-5.5-8-10-10.2c-2.5-1.2-5.1-2.2-8-3.4
		c0.9,3.4,1.5,6.6,2.5,9.7c0.8,2.6,1.3,5.3,2.7,7.7c1.1,2.1-1.4,3.6-1.5,5.7c-1-0.4-0.2-1.3-1-1.8c-1.9,0.4-3.2,1.8-4.6,3.1
		C518.3,438.3,516.5,438.2,514.8,438.1z M523.4,368c0.2,0.2,0.3,0.3,0.5,0.5c1.4-0.9,2.8-1.7,4.5-2.8c-1.4-1-2.3-2.1-3.9-2.4
		C524.2,365,523.8,366.5,523.4,368z M520.4,413.1c-1.5,1.4-0.2,3-0.6,4.5C521.3,416.3,520.2,414.6,520.4,413.1z M536,417
		c0.4,0.7,0.8,1,1.7,0.5C537.1,417.4,536.9,416.8,536,417z"/>
	<path fill="#050705" d="M512.4,370.2c1.1,1.1-0.1,3,1.2,4c-2.5,0.1-4.9,0.3-7.4,0.1c-0.9,0-2.3,0.5-2.6-1.2c-0.3-1.2-0.1-2.5,0.7-3
		c0.9-0.6,2.6-0.5,3.3,0.2C509.3,372.2,510.8,371.3,512.4,370.2z"/>
	<path fill="#0A0C0A" d="M520.9,431.8c0.2,0.7,2,1.1,0.6,2.2c-1.1,0.8-1.3,4.1-3.7,1.4C518.8,434.2,519.9,433,520.9,431.8z"/>
	<path fill="#F7F9F6" d="M524.9,406.9c-0.5-0.5-0.9-0.9-1.4-1.4c0.6-1,1.5-0.6,2.5-0.5C526.1,406,525.4,406.4,524.9,406.9z"/>
	<path fill="#F7F9F6" d="M510.1,412.7c1.4,1.4,0.4,2.2-0.6,3.2C508.8,414.6,509.8,413.7,510.1,412.7z"/>
	<path fill="#F8FAF8" d="M526.2,397c0.2-1-0.1-2.1,1-2.9C527.6,395.4,527.7,396.3,526.2,397z"/>
	<path fill="#F8FAF7" d="M525.8,397.8c-0.1,1.8-0.9,2.1-2.4,1.9C524.3,399.1,524.9,398.6,525.8,397.8z"/>
	<path fill="#444643" d="M528.4,343c-0.9-0.3-1-1.2-1.6-1.7c0.7-0.8,1.1,0.9,1.6,0C529,341.9,529.5,342.5,528.4,343z"/>
	<path fill="#0A0C0A" d="M514.8,438.1c1.7,0.1,3.5,0.2,5.2,0.3C518.2,439.1,516.5,438.9,514.8,438.1z"/>
	<path fill="#F1F3F1" d="M524.7,372.7c0.7-0.5,1.5-0.8,2.3-0.9C527.1,374.2,525.6,372.6,524.7,372.7z"/>
	<path fill="#858785" d="M526.5,339c-1.2,0.6-1.8-0.5-2.8-0.8C525,337.2,525.7,338.1,526.5,339z"/>
	<path fill="#F6F8F5" d="M538.6,429.7c1.1,0.7,1.8,1,2.5,1.5C539.7,432.2,539.3,431.2,538.6,429.7z"/>
	<path fill="#F7F9F7" d="M527.9,438.3c-0.2-0.7-0.4-1.4,0.3-1.9C529.2,437.2,528.1,437.7,527.9,438.3z"/>
	<path fill="#F5F8F5" d="M530.6,360.7c0.9-0.4,1.4-0.3,1.9,0C531.7,361.7,531.5,360.8,530.6,360.7z"/>
	<path fill="#F6F8F6" d="M524.9,419.4c-0.7-0.3-0.6-0.8-1-1.8C525,418.3,525.1,418.7,524.9,419.4z"/>
	<path fill="#F6F9F6" d="M520.4,333.8c0.4,0,0.7,0.1,0.6,0.4c0,0.2-0.4,0.3-0.6,0.4c-0.1,0-0.3-0.2-0.4-0.2
		C520.1,334.1,520.3,333.9,520.4,333.8z"/>
	<path fill="#EBEDEB" d="M523.4,368c0.4-1.5,0.7-3,1.1-4.6c1.6,0.3,2.5,1.4,3.9,2.4c-1.6,1-3.1,1.9-4.5,2.8
		C523.8,368.3,523.6,368.1,523.4,368z"/>
	<path fill="#030503" d="M520.4,413.1c-0.2,1.5,1,3.2-0.6,4.5C520.2,416.2,518.9,414.5,520.4,413.1z"/>
	<path fill="#060805" d="M536,417c0.9-0.3,1.1,0.3,1.7,0.5C536.8,418,536.4,417.7,536,417z"/>
</g>
</svg>
